<svg width="100" height="100" viewBox="0 0 100 100" fill="none" xmlns="http://www.w3.org/2000/svg">
<path d="M90 50C90 39.1261 85.7857 28.6976 78.2843 21.0086C70.7828 13.3196 60.6087 9 50 9C39.3913 9 29.2172 13.3196 21.7157 21.0086C14.2143 28.6976 10 39.1261 10 50L36.0095 50C36.0095 46.1967 37.4835 42.5492 40.1073 39.8599C42.731 37.1706 46.2895 35.6598 50 35.6598C53.7105 35.6598 57.269 37.1706 59.8927 39.8599C62.5165 42.5492 63.9905 46.1967 63.9905 50H90Z" fill="white"/>
<path d="M90 50C90 39.1261 85.7857 28.6976 78.2843 21.0086C70.7828 13.3196 60.6087 9 50 9C39.3913 9 29.2172 13.3196 21.7157 21.0086C14.2143 28.6976 10 39.1261 10 50L36.0095 50C36.0095 46.1967 37.4835 42.5492 40.1073 39.8599C42.731 37.1706 46.2895 35.6598 50 35.6598C53.7105 35.6598 57.269 37.1706 59.8927 39.8599C62.5165 42.5492 63.9905 46.1967 63.9905 50H90Z" fill="white"/>
<mask id="path-3-inside-1_2011_5" fill="white">
<path d="M90 54C90 64.8739 85.7857 75.3024 78.2843 82.9914C70.7828 90.6804 60.6087 95 50 95C39.3913 95 29.2172 90.6804 21.7157 82.9914C14.2143 75.3024 10 64.8739 10 54L36.0095 54C36.0095 57.8033 37.4835 61.4508 40.1073 64.1401C42.731 66.8294 46.2895 68.3402 50 68.3402C53.7105 68.3402 57.269 66.8294 59.8927 64.1401C62.5165 61.4508 63.9905 57.8033 63.9905 54H90Z"/>
</mask>
<path d="M90 54C90 64.8739 85.7857 75.3024 78.2843 82.9914C70.7828 90.6804 60.6087 95 50 95C39.3913 95 29.2172 90.6804 21.7157 82.9914C14.2143 75.3024 10 64.8739 10 54L36.0095 54C36.0095 57.8033 37.4835 61.4508 40.1073 64.1401C42.731 66.8294 46.2895 68.3402 50 68.3402C53.7105 68.3402 57.269 66.8294 59.8927 64.1401C62.5165 61.4508 63.9905 57.8033 63.9905 54H90Z" stroke="white" stroke-width="2" mask="url(#path-3-inside-1_2011_5)"/>
<circle cx="50" cy="52" r="5" fill="white"/>
</svg>
