<svg viewBox="0 0 1024 1024" xmlns="http://www.w3.org/2000/svg">
  <!-- Background Gradient -->
  <defs>
    <linearGradient id="bgGradient" x1="0%" y1="0%" x2="100%" y2="100%">
      <stop offset="0%" style="stop-color:#FF6B6B;stop-opacity:1" />
      <stop offset="100%" style="stop-color:#C92A2A;stop-opacity:1" />
    </linearGradient>
    
    <linearGradient id="topGradient" x1="0%" y1="0%" x2="0%" y2="100%">
      <stop offset="0%" style="stop-color:#FF4444;stop-opacity:1" />
      <stop offset="100%" style="stop-color:#DD2222;stop-opacity:1" />
    </linearGradient>
    
    <linearGradient id="bottomGradient" x1="0%" y1="0%" x2="0%" y2="100%">
      <stop offset="0%" style="stop-color:#FFFFFF;stop-opacity:1" />
      <stop offset="100%" style="stop-color:#F0F0F0;stop-opacity:1" />
    </linearGradient>
    
    <!-- Shadow Filter -->
    <filter id="shadow" x="-50%" y="-50%" width="200%" height="200%">
      <feDropShadow dx="0" dy="8" stdDeviation="12" flood-opacity="0.3"/>
    </filter>
  </defs>
  
  <!-- Rounded Background -->
  <rect width="1024" height="1024" rx="180" fill="url(#bgGradient)"/>
  
  <!-- Pokeball Container -->
  <g transform="translate(512, 512)">
    
    <!-- Top Half (Red) -->
    <path d="M -280,0 A 280,280 0 0,1 280,0 L 280,0 L -280,0 Z" 
          fill="url(#topGradient)" 
          filter="url(#shadow)"/>
    
    <!-- Bottom Half (White) -->
    <path d="M -280,0 A 280,280 0 0,0 280,0 L 280,0 L -280,0 Z" 
          fill="url(#bottomGradient)" 
          filter="url(#shadow)"/>
    
    <!-- Black Middle Band -->
    <rect x="-280" y="-20" width="560" height="40" fill="#2D2D2D"/>
    
    <!-- Center Button Outer (Black) -->
    <circle cx="0" cy="0" r="95" fill="#2D2D2D"/>
    
    <!-- Center Button Middle (White) -->
    <circle cx="0" cy="0" r="75" fill="#FFFFFF"/>
    
    <!-- Center Button Inner (Light Gray) -->
    <circle cx="0" cy="0" r="50" fill="#E8E8E8"/>
    
    <!-- Button Highlight -->
    <circle cx="-15" cy="-15" r="20" fill="#FFFFFF" opacity="0.4"/>
    
    <!-- Shine Effect on Top -->
    <ellipse cx="-80" cy="-150" rx="120" ry="80" fill="#FFFFFF" opacity="0.15"/>
    
  </g>
  
</svg>